<svg xmlns="http://www.w3.org/2000/svg" version="1.0" viewBox="0 0 81 297"><path fill="#FFF" stroke="#FFF" stroke-width=".1" d="M10 149v110h60v-4.3c0-4.3-.1-4.3-3-3.9-2.4.3-3 .9-3 2.8v2.4l-22.7-.2c-22.6-.3-22.8-.3-23.1-2.5-.2-1.4-1.1-2.3-2.5-2.5l-2.2-.3v-113l2.3-.3c1.8-.3 2.2-1 2.2-3.7 0-4.6.9-6.5 3.1-6.5 1.8 0 1.9-1 1.9-19.5V88h5V44h27v44h5v19.5c0 18.8.1 19.5 2 19.5 1.7 0 2 .7 2 4.9 0 4.7.1 4.9 3 5.3l3 .5V39H10v110z"/><path fill="#FF4C19" stroke="#FF4C19" stroke-width=".1" d="M30 47c0 1.9.7 2 11.5 2S53 48.9 53 47s-.7-2-11.5-2-11.5.1-11.5 2zM20 194v41h43v-82H20v41z"/><path fill="#333" stroke="#333" stroke-width=".1" d="M30 69.5V89h-5v40h-2.5c-2.3 0-2.5.4-2.5 4.5s-.2 4.5-2.5 4.5H15v112h2.5c2 0 2.5.5 2.5 2.5v2.5h43v-2.5c0-2 .5-2.5 2.5-2.5H68V138h-2.5c-2.3 0-2.5-.4-2.5-4.5s-.2-4.5-2.5-4.5H58V89h-5V50H30v19.5zm34.8 123c.1 22 0 41-.3 42.3L64 237l-22.3-.2-22.2-.3-.3-42.3L19 152l22.7.2 22.8.3.3 40z"/><path fill="#E5E5E5" stroke="#E5E5E5" stroke-width=".1" d="M13.5 194c0 31.1.1 43.8.2 28.3.2-15.6.2-41 0-56.5-.1-15.6-.2-2.9-.2 28.2zm56 .5c0 30.8.1 43.5.2 28.3.2-15.2.2-40.4 0-56-.1-15.6-.2-3.1-.2 27.7z"/><path fill="#7F7F7F" stroke="#7F7F7F" stroke-width=".1" d="M14.5 194c0 31.1.1 43.8.2 28.3.2-15.6.2-41 0-56.5-.1-15.6-.2-2.9-.2 28.2zm54 0c0 31.1.1 43.8.2 28.3.2-15.6.2-41 0-56.5-.1-15.6-.2-2.9-.2 28.2z"/><path fill="#933" stroke="#933" stroke-width=".1" d="M19.5 153.3c-.3.6-.4 19.4-.3 41.7l.3 40.5.5-41.8c.3-22.9.4-41.7.2-41.7-.1 0-.5.6-.7 1.3z"/><path fill="#C33" stroke="#C33" stroke-width=".1" d="M63.5 194c0 22.8.1 32.2.2 20.8.2-11.5.2-30.1 0-41.5-.1-11.5-.2-2.1-.2 20.7z"/><path fill="#4C3333" stroke="#4C3333" stroke-width=".1" d="M64.5 194c0 22.8.1 32.2.2 20.8.2-11.5.2-30.1 0-41.5-.1-11.5-.2-2.1-.2 20.7z"/></svg>
